<?xml version="1.0" encoding="UTF-8" standalone="no"?>
<svg
   xmlns:osb="http://www.openswatchbook.org/uri/2009/osb"
   xmlns:dc="http://purl.org/dc/elements/1.1/"
   xmlns:cc="http://creativecommons.org/ns#"
   xmlns:rdf="http://www.w3.org/1999/02/22-rdf-syntax-ns#"
   xmlns:svg="http://www.w3.org/2000/svg"
   xmlns="http://www.w3.org/2000/svg"
   xmlns:xlink="http://www.w3.org/1999/xlink"
   xmlns:sodipodi="http://sodipodi.sourceforge.net/DTD/sodipodi-0.dtd"
   xmlns:inkscape="http://www.inkscape.org/namespaces/inkscape"
   version="1.1"
   id="Layer_1"
   inkscape:version="0.91 r13725"
   sodipodi:docname="kibana.svg"
   x="0px"
   y="0px"
   viewBox="0 0 141.4 51"
   style="enable-background:new 0 0 141.4 51;"
   xml:space="preserve"><metadata
     id="metadata3448"><rdf:RDF><cc:Work
         rdf:about=""><dc:format>image/svg+xml</dc:format><dc:type
           rdf:resource="http://purl.org/dc/dcmitype/StillImage" /></cc:Work></rdf:RDF></metadata><defs
     id="defs3446"><linearGradient
       id="linearGradient4254"
       osb:paint="solid"><stop
         style="stop-color:#000000;stop-opacity:1;"
         offset="0"
         id="stop4256" /></linearGradient><linearGradient
       inkscape:collect="always"
       xlink:href="#linearGradient4254"
       id="linearGradient4258"
       x1="27.87492"
       y1="131.66501"
       x2="117.48429"
       y2="131.66501"
       gradientUnits="userSpaceOnUse" /></defs><style
     type="text/css"
     id="style3413">
	.st0{fill:#FFFFFF;fill-opacity:0.9253;}
	.st1{opacity:0.7;fill:#FFFFFF;}
	.st2{opacity:0.5;fill:#FFFFFF;}
	.st3{fill:#FFFFFF;}
</style><sodipodi:namedview
     bordercolor="#666666"
     borderopacity="1"
     gridtolerance="10"
     guidetolerance="10"
     id="namedview29"
     inkscape:current-layer="Layer_1"
     inkscape:cx="-88.718426"
     inkscape:cy="25.5"
     inkscape:pageopacity="1"
     inkscape:pageshadow="2"
     inkscape:window-height="744"
     inkscape:window-maximized="1"
     inkscape:window-width="1325"
     inkscape:window-x="41"
     inkscape:window-y="24"
     inkscape:zoom="2.0725756"
     objecttolerance="10"
     pagecolor="#515151"
     showgrid="false" /><title
     id="title7">Kibana-Full-Logo</title><g
     id="g3424"><path
       class="st1"
       d="M19.4,23.8L39.3,0H0v19.1c0.2,0,0.5,0,0.7,0C7.5,19.1,13.9,20.8,19.4,23.8z"
       id="path3426" /><polygon
       class="st1"
       points="0,47.3 0,47.3 19.4,23.8  "
       id="polygon3428" /><path
       class="st1"
       d="M24.5,27.1c0.2,0.2,0.4,0.3,0.5,0.4C24.9,27.4,24.7,27.3,24.5,27.1z"
       id="path3430" /><path
       class="st1"
       d="M23,26c0.1,0.1,0.2,0.1,0.3,0.2C23.2,26.2,23.1,26.1,23,26z"
       id="path3432" /><path
       class="st1"
       d="M25.8,28.2L7,51h32.2C37.5,41.9,32.7,33.9,25.8,28.2z"
       id="path3434" /><path
       class="st2"
       d="M22.8,25.9c-1.4-1-3.4-2.1-3.4-2.1c1.2,0.7,2.4,1.4,3.6,2.2C22.9,26,22.9,26,22.8,25.9z"
       id="path3436" /><path
       class="st2"
       d="M25.9,28.2c0,0-0.3-0.2-0.8-0.6C25.3,27.8,25.6,28,25.9,28.2L25.9,28.2z"
       id="path3438" /><path
       class="st2"
       d="M23.3,26.3c0.4,0.3,0.8,0.6,1.2,0.9C24.2,26.9,23.8,26.6,23.3,26.3z"
       id="path3440" /><path
       class="st2"
       d="M25.1,27.6c-0.2-0.1-0.3-0.3-0.5-0.4c-0.4-0.3-0.8-0.6-1.2-0.9c-0.1-0.1-0.2-0.1-0.3-0.2   c-1.1-0.8-2.3-1.5-3.6-2.2L0,47.3V51h7l18.9-22.8C25.6,28,25.3,27.8,25.1,27.6z"
       id="path3442" /><path
       class="st3"
       d="M0.7,19.1c-0.2,0-0.5,0-0.7,0v28.2l19.4-23.4C13.9,20.8,7.5,19.1,0.7,19.1z"
       id="path3444" /></g><text
     xml:space="preserve"
     style="font-style:normal;font-variant:normal;font-weight:bold;font-stretch:normal;font-size:22.47490883px;line-height:125%;font-family:sans-serif;-inkscape-font-specification:'sans-serif Bold';letter-spacing:0px;word-spacing:0px;opacity:0.98999999;fill:#fefffe;fill-opacity:0.91709846;"
     x="53.677563"
     y="30.740025"
     id="text3450"
     sodipodi:linespacing="125%"
     transform="scale(0.88988128,1.1237454)"><tspan
       sodipodi:role="line"
       id="tspan3452"
       x="53.677563"
       y="30.740025"
       style="fill:#fefffe;fill-opacity:0.91709846;">LittleBeat</tspan></text>
</svg>